<svg width="340" height="87" viewBox="0 0 340 87" fill="none" xmlns="http://www.w3.org/2000/svg">
<path d="M83.7691 36V4.5H88.5841L102.354 27.495H99.8341L113.379 4.5H118.194L118.239 36H112.704L112.659 13.185H113.829L102.309 32.4H99.6991L87.9991 13.185H89.3491V36H83.7691ZM137.503 36.315C134.833 36.315 132.493 35.79 130.483 34.74C128.503 33.66 126.958 32.19 125.848 30.33C124.768 28.47 124.228 26.355 124.228 23.985C124.228 21.585 124.753 19.47 125.803 17.64C126.883 15.78 128.353 14.325 130.213 13.275C132.103 12.225 134.248 11.7 136.648 11.7C138.988 11.7 141.073 12.21 142.903 13.23C144.733 14.25 146.173 15.69 147.223 17.55C148.273 19.41 148.798 21.6 148.798 24.12C148.798 24.36 148.783 24.63 148.753 24.93C148.753 25.23 148.738 25.515 148.708 25.785H128.683V22.05H145.738L143.533 23.22C143.563 21.84 143.278 20.625 142.678 19.575C142.078 18.525 141.253 17.7 140.203 17.1C139.183 16.5 137.998 16.2 136.648 16.2C135.268 16.2 134.053 16.5 133.003 17.1C131.983 17.7 131.173 18.54 130.573 19.62C130.003 20.67 129.718 21.915 129.718 23.355V24.255C129.718 25.695 130.048 26.97 130.708 28.08C131.368 29.19 132.298 30.045 133.498 30.645C134.698 31.245 136.078 31.545 137.638 31.545C138.988 31.545 140.203 31.335 141.283 30.915C142.363 30.495 143.323 29.835 144.163 28.935L147.178 32.4C146.098 33.66 144.733 34.635 143.083 35.325C141.463 35.985 139.603 36.315 137.503 36.315ZM164.371 36.315C162.331 36.315 160.531 35.94 158.971 35.19C157.411 34.41 156.196 33.24 155.326 31.68C154.456 30.09 154.021 28.095 154.021 25.695V11.97H159.646V24.93C159.646 27.09 160.126 28.71 161.086 29.79C162.076 30.84 163.471 31.365 165.271 31.365C166.591 31.365 167.731 31.095 168.691 30.555C169.681 30.015 170.446 29.205 170.986 28.125C171.556 27.045 171.841 25.71 171.841 24.12V11.97H177.466V36H172.111V29.52L173.056 31.5C172.246 33.06 171.061 34.26 169.501 35.1C167.941 35.91 166.231 36.315 164.371 36.315ZM208.157 45.045C205.937 45.045 203.762 44.745 201.632 44.145C199.532 43.575 197.807 42.735 196.457 41.625L198.977 37.395C200.027 38.265 201.347 38.955 202.937 39.465C204.557 40.005 206.192 40.275 207.842 40.275C210.482 40.275 212.417 39.66 213.647 38.43C214.877 37.23 215.492 35.415 215.492 32.985V28.71L215.942 23.265L215.762 17.82V11.97H221.117V32.355C221.117 36.705 220.007 39.9 217.787 41.94C215.567 44.01 212.357 45.045 208.157 45.045ZM207.437 34.92C205.157 34.92 203.087 34.44 201.227 33.48C199.397 32.49 197.942 31.125 196.862 29.385C195.812 27.645 195.287 25.605 195.287 23.265C195.287 20.955 195.812 18.93 196.862 17.19C197.942 15.45 199.397 14.1 201.227 13.14C203.087 12.18 205.157 11.7 207.437 11.7C209.477 11.7 211.307 12.105 212.927 12.915C214.547 13.725 215.837 14.985 216.797 16.695C217.787 18.405 218.282 20.595 218.282 23.265C218.282 25.935 217.787 28.14 216.797 29.88C215.837 31.59 214.547 32.865 212.927 33.705C211.307 34.515 209.477 34.92 207.437 34.92ZM208.292 30.15C209.702 30.15 210.962 29.865 212.072 29.295C213.182 28.695 214.037 27.885 214.637 26.865C215.267 25.815 215.582 24.615 215.582 23.265C215.582 21.915 215.267 20.73 214.637 19.71C214.037 18.66 213.182 17.865 212.072 17.325C210.962 16.755 209.702 16.47 208.292 16.47C206.882 16.47 205.607 16.755 204.467 17.325C203.357 17.865 202.487 18.66 201.857 19.71C201.257 20.73 200.957 21.915 200.957 23.265C200.957 24.615 201.257 25.815 201.857 26.865C202.487 27.885 203.357 28.695 204.467 29.295C205.607 29.865 206.882 30.15 208.292 30.15ZM238.682 36.315C236.642 36.315 234.842 35.94 233.282 35.19C231.722 34.41 230.507 33.24 229.637 31.68C228.767 30.09 228.332 28.095 228.332 25.695V11.97H233.957V24.93C233.957 27.09 234.437 28.71 235.397 29.79C236.387 30.84 237.782 31.365 239.582 31.365C240.902 31.365 242.042 31.095 243.002 30.555C243.992 30.015 244.757 29.205 245.297 28.125C245.867 27.045 246.152 25.71 246.152 24.12V11.97H251.777V36H246.422V29.52L247.367 31.5C246.557 33.06 245.372 34.26 243.812 35.1C242.252 35.91 240.542 36.315 238.682 36.315ZM259.142 36V11.97H264.767V36H259.142ZM261.977 8.01C260.927 8.01 260.057 7.68 259.367 7.02C258.707 6.36 258.377 5.565 258.377 4.635C258.377 3.675 258.707 2.88 259.367 2.25C260.057 1.59 260.927 1.26 261.977 1.26C263.027 1.26 263.882 1.575 264.542 2.205C265.232 2.805 265.577 3.57 265.577 4.5C265.577 5.49 265.247 6.33 264.587 7.02C263.927 7.68 263.057 8.01 261.977 8.01ZM286.955 36V31.14L286.64 30.105V21.6C286.64 19.95 286.145 18.675 285.155 17.775C284.165 16.845 282.665 16.38 280.655 16.38C279.305 16.38 277.97 16.59 276.65 17.01C275.36 17.43 274.265 18.015 273.365 18.765L271.16 14.67C272.45 13.68 273.98 12.945 275.75 12.465C277.55 11.955 279.41 11.7 281.33 11.7C284.81 11.7 287.495 12.54 289.385 14.22C291.305 15.87 292.265 18.435 292.265 21.915V36H286.955ZM279.395 36.315C277.595 36.315 276.02 36.015 274.67 35.415C273.32 34.785 272.27 33.93 271.52 32.85C270.8 31.74 270.44 30.495 270.44 29.115C270.44 27.765 270.755 26.55 271.385 25.47C272.045 24.39 273.11 23.535 274.58 22.905C276.05 22.275 278 21.96 280.43 21.96H287.405V25.695H280.835C278.915 25.695 277.625 26.01 276.965 26.64C276.305 27.24 275.975 27.99 275.975 28.89C275.975 29.91 276.38 30.72 277.19 31.32C278 31.92 279.125 32.22 280.565 32.22C281.945 32.22 283.175 31.905 284.255 31.275C285.365 30.645 286.16 29.715 286.64 28.485L287.585 31.86C287.045 33.27 286.07 34.365 284.66 35.145C283.28 35.925 281.525 36.315 279.395 36.315ZM93.3991 76.315C91.0891 76.315 89.0041 75.805 87.1441 74.785C85.3141 73.735 83.8741 72.295 82.8241 70.465C81.7741 68.635 81.2491 66.475 81.2491 63.985C81.2491 61.495 81.7741 59.335 82.8241 57.505C83.8741 55.675 85.3141 54.25 87.1441 53.23C89.0041 52.21 91.0891 51.7 93.3991 51.7C95.4091 51.7 97.2091 52.15 98.7991 53.05C100.389 53.92 101.649 55.255 102.579 57.055C103.509 58.855 103.974 61.165 103.974 63.985C103.974 66.775 103.524 69.085 102.624 70.915C101.724 72.715 100.479 74.065 98.8891 74.965C97.2991 75.865 95.4691 76.315 93.3991 76.315ZM94.0741 71.5C95.4241 71.5 96.6241 71.2 97.6741 70.6C98.7541 70 99.6091 69.13 100.239 67.99C100.899 66.85 101.229 65.515 101.229 63.985C101.229 62.425 100.899 61.09 100.239 59.98C99.6091 58.84 98.7541 57.97 97.6741 57.37C96.6241 56.77 95.4241 56.47 94.0741 56.47C92.7241 56.47 91.5091 56.77 90.4291 57.37C89.3791 57.97 88.5241 58.84 87.8641 59.98C87.2341 61.09 86.9191 62.425 86.9191 63.985C86.9191 65.515 87.2341 66.85 87.8641 67.99C88.5241 69.13 89.3791 70 90.4291 70.6C91.5091 71.2 92.7241 71.5 94.0741 71.5ZM101.364 76V70.33L101.589 63.94L101.139 57.55V42.61H106.719V76H101.364ZM125.418 76.315C122.748 76.315 120.408 75.79 118.398 74.74C116.418 73.66 114.873 72.19 113.763 70.33C112.683 68.47 112.143 66.355 112.143 63.985C112.143 61.585 112.668 59.47 113.718 57.64C114.798 55.78 116.268 54.325 118.128 53.275C120.018 52.225 122.163 51.7 124.563 51.7C126.903 51.7 128.988 52.21 130.818 53.23C132.648 54.25 134.088 55.69 135.138 57.55C136.188 59.41 136.713 61.6 136.713 64.12C136.713 64.36 136.698 64.63 136.668 64.93C136.668 65.23 136.653 65.515 136.623 65.785H116.598V62.05H133.653L131.448 63.22C131.478 61.84 131.193 60.625 130.593 59.575C129.993 58.525 129.168 57.7 128.118 57.1C127.098 56.5 125.913 56.2 124.563 56.2C123.183 56.2 121.968 56.5 120.918 57.1C119.898 57.7 119.088 58.54 118.488 59.62C117.918 60.67 117.633 61.915 117.633 63.355V64.255C117.633 65.695 117.963 66.97 118.623 68.08C119.283 69.19 120.213 70.045 121.413 70.645C122.613 71.245 123.993 71.545 125.553 71.545C126.903 71.545 128.118 71.335 129.198 70.915C130.278 70.495 131.238 69.835 132.078 68.935L135.093 72.4C134.013 73.66 132.648 74.635 130.998 75.325C129.378 75.985 127.518 76.315 125.418 76.315ZM161.977 76.315C159.967 76.315 158.032 76.06 156.172 75.55C154.342 75.01 152.887 74.365 151.807 73.615L153.967 69.34C155.047 70.03 156.337 70.6 157.837 71.05C159.337 71.5 160.837 71.725 162.337 71.725C164.107 71.725 165.382 71.485 166.162 71.005C166.972 70.525 167.377 69.88 167.377 69.07C167.377 68.41 167.107 67.915 166.567 67.585C166.027 67.225 165.322 66.955 164.452 66.775C163.582 66.595 162.607 66.43 161.527 66.28C160.477 66.13 159.412 65.935 158.332 65.695C157.282 65.425 156.322 65.05 155.452 64.57C154.582 64.06 153.877 63.385 153.337 62.545C152.797 61.705 152.527 60.595 152.527 59.215C152.527 57.685 152.962 56.365 153.832 55.255C154.702 54.115 155.917 53.245 157.477 52.645C159.067 52.015 160.942 51.7 163.102 51.7C164.722 51.7 166.357 51.88 168.007 52.24C169.657 52.6 171.022 53.11 172.102 53.77L169.942 58.045C168.802 57.355 167.647 56.89 166.477 56.65C165.337 56.38 164.197 56.245 163.057 56.245C161.347 56.245 160.072 56.5 159.232 57.01C158.422 57.52 158.017 58.165 158.017 58.945C158.017 59.665 158.287 60.205 158.827 60.565C159.367 60.925 160.072 61.21 160.942 61.42C161.812 61.63 162.772 61.81 163.822 61.96C164.902 62.08 165.967 62.275 167.017 62.545C168.067 62.815 169.027 63.19 169.897 63.67C170.797 64.12 171.517 64.765 172.057 65.605C172.597 66.445 172.867 67.54 172.867 68.89C172.867 70.39 172.417 71.695 171.517 72.805C170.647 73.915 169.402 74.785 167.782 75.415C166.162 76.015 164.227 76.315 161.977 76.315ZM189.006 76.315C186.336 76.315 183.996 75.79 181.986 74.74C180.006 73.66 178.461 72.19 177.351 70.33C176.271 68.47 175.731 66.355 175.731 63.985C175.731 61.585 176.256 59.47 177.306 57.64C178.386 55.78 179.856 54.325 181.716 53.275C183.606 52.225 185.751 51.7 188.151 51.7C190.491 51.7 192.576 52.21 194.406 53.23C196.236 54.25 197.676 55.69 198.726 57.55C199.776 59.41 200.301 61.6 200.301 64.12C200.301 64.36 200.286 64.63 200.256 64.93C200.256 65.23 200.241 65.515 200.211 65.785H180.186V62.05H197.241L195.036 63.22C195.066 61.84 194.781 60.625 194.181 59.575C193.581 58.525 192.756 57.7 191.706 57.1C190.686 56.5 189.501 56.2 188.151 56.2C186.771 56.2 185.556 56.5 184.506 57.1C183.486 57.7 182.676 58.54 182.076 59.62C181.506 60.67 181.221 61.915 181.221 63.355V64.255C181.221 65.695 181.551 66.97 182.211 68.08C182.871 69.19 183.801 70.045 185.001 70.645C186.201 71.245 187.581 71.545 189.141 71.545C190.491 71.545 191.706 71.335 192.786 70.915C193.866 70.495 194.826 69.835 195.666 68.935L198.681 72.4C197.601 73.66 196.236 74.635 194.586 75.325C192.966 75.985 191.106 76.315 189.006 76.315ZM205.705 76V51.97H211.06V58.585L210.43 56.65C211.15 55.03 212.275 53.8 213.805 52.96C215.365 52.12 217.3 51.7 219.61 51.7V57.055C219.37 56.995 219.145 56.965 218.935 56.965C218.725 56.935 218.515 56.92 218.305 56.92C216.175 56.92 214.48 57.55 213.22 58.81C211.96 60.04 211.33 61.885 211.33 64.345V76H205.705ZM231.65 76L221.345 51.97H227.195L236.06 73.165H233.18L242.36 51.97H247.76L237.455 76H231.65ZM251.276 76V51.97H256.901V76H251.276ZM254.111 48.01C253.061 48.01 252.191 47.68 251.501 47.02C250.841 46.36 250.511 45.565 250.511 44.635C250.511 43.675 250.841 42.88 251.501 42.25C252.191 41.59 253.061 41.26 254.111 41.26C255.161 41.26 256.016 41.575 256.676 42.205C257.366 42.805 257.711 43.57 257.711 44.5C257.711 45.49 257.381 46.33 256.721 47.02C256.061 47.68 255.191 48.01 254.111 48.01ZM275.309 76.315C272.789 76.315 270.539 75.79 268.559 74.74C266.609 73.66 265.079 72.19 263.969 70.33C262.859 68.47 262.304 66.355 262.304 63.985C262.304 61.585 262.859 59.47 263.969 57.64C265.079 55.78 266.609 54.325 268.559 53.275C270.539 52.225 272.789 51.7 275.309 51.7C277.649 51.7 279.704 52.18 281.474 53.14C283.274 54.07 284.639 55.45 285.569 57.28L281.249 59.8C280.529 58.66 279.644 57.82 278.594 57.28C277.574 56.74 276.464 56.47 275.264 56.47C273.884 56.47 272.639 56.77 271.529 57.37C270.419 57.97 269.549 58.84 268.919 59.98C268.289 61.09 267.974 62.425 267.974 63.985C267.974 65.545 268.289 66.895 268.919 68.035C269.549 69.145 270.419 70 271.529 70.6C272.639 71.2 273.884 71.5 275.264 71.5C276.464 71.5 277.574 71.23 278.594 70.69C279.644 70.15 280.529 69.31 281.249 68.17L285.569 70.69C284.639 72.49 283.274 73.885 281.474 74.875C279.704 75.835 277.649 76.315 275.309 76.315ZM272.969 86.26C272.159 86.26 271.409 86.17 270.719 85.99C270.029 85.84 269.399 85.615 268.829 85.315L269.864 82.66C270.344 82.9 270.824 83.08 271.304 83.2C271.814 83.32 272.354 83.38 272.924 83.38C273.794 83.38 274.409 83.23 274.769 82.93C275.129 82.63 275.309 82.24 275.309 81.76C275.309 81.31 275.114 80.95 274.724 80.68C274.364 80.41 273.764 80.275 272.924 80.275H271.529L272.744 75.685H275.804L275.174 78.205C276.494 78.355 277.469 78.775 278.099 79.465C278.759 80.185 279.089 81.025 279.089 81.985C279.089 83.305 278.534 84.34 277.424 85.09C276.314 85.87 274.829 86.26 272.969 86.26ZM300.88 76.315C298.42 76.315 296.23 75.79 294.31 74.74C292.39 73.66 290.875 72.19 289.765 70.33C288.655 68.47 288.1 66.355 288.1 63.985C288.1 61.585 288.655 59.47 289.765 57.64C290.875 55.78 292.39 54.325 294.31 53.275C296.23 52.225 298.42 51.7 300.88 51.7C303.37 51.7 305.575 52.225 307.495 53.275C309.445 54.325 310.96 55.765 312.04 57.595C313.15 59.425 313.705 61.555 313.705 63.985C313.705 66.355 313.15 68.47 312.04 70.33C310.96 72.19 309.445 73.66 307.495 74.74C305.575 75.79 303.37 76.315 300.88 76.315ZM300.88 71.5C302.26 71.5 303.49 71.2 304.57 70.6C305.65 70 306.49 69.13 307.09 67.99C307.72 66.85 308.035 65.515 308.035 63.985C308.035 62.425 307.72 61.09 307.09 59.98C306.49 58.84 305.65 57.97 304.57 57.37C303.49 56.77 302.275 56.47 300.925 56.47C299.545 56.47 298.315 56.77 297.235 57.37C296.185 57.97 295.345 58.84 294.715 59.98C294.085 61.09 293.77 62.425 293.77 63.985C293.77 65.515 294.085 66.85 294.715 67.99C295.345 69.13 296.185 70 297.235 70.6C298.315 71.2 299.53 71.5 300.88 71.5ZM326.509 76.315C324.499 76.315 322.564 76.06 320.704 75.55C318.874 75.01 317.419 74.365 316.339 73.615L318.499 69.34C319.579 70.03 320.869 70.6 322.369 71.05C323.869 71.5 325.369 71.725 326.869 71.725C328.639 71.725 329.914 71.485 330.694 71.005C331.504 70.525 331.909 69.88 331.909 69.07C331.909 68.41 331.639 67.915 331.099 67.585C330.559 67.225 329.854 66.955 328.984 66.775C328.114 66.595 327.139 66.43 326.059 66.28C325.009 66.13 323.944 65.935 322.864 65.695C321.814 65.425 320.854 65.05 319.984 64.57C319.114 64.06 318.409 63.385 317.869 62.545C317.329 61.705 317.059 60.595 317.059 59.215C317.059 57.685 317.494 56.365 318.364 55.255C319.234 54.115 320.449 53.245 322.009 52.645C323.599 52.015 325.474 51.7 327.634 51.7C329.254 51.7 330.889 51.88 332.539 52.24C334.189 52.6 335.554 53.11 336.634 53.77L334.474 58.045C333.334 57.355 332.179 56.89 331.009 56.65C329.869 56.38 328.729 56.245 327.589 56.245C325.879 56.245 324.604 56.5 323.764 57.01C322.954 57.52 322.549 58.165 322.549 58.945C322.549 59.665 322.819 60.205 323.359 60.565C323.899 60.925 324.604 61.21 325.474 61.42C326.344 61.63 327.304 61.81 328.354 61.96C329.434 62.08 330.499 62.275 331.549 62.545C332.599 62.815 333.559 63.19 334.429 63.67C335.329 64.12 336.049 64.765 336.589 65.605C337.129 66.445 337.399 67.54 337.399 68.89C337.399 70.39 336.949 71.695 336.049 72.805C335.179 73.915 333.934 74.785 332.314 75.415C330.694 76.015 328.759 76.315 326.509 76.315Z" fill="url(#paint0_linear_675_12)"/>
<path d="M42.7652 46.7718L36 76L29.2348 46.7718L0 40L29.2348 33.2388L36 4L42.7652 33.2388L72 40L42.7652 46.7718Z" fill="#E0C3AB"/>
<path d="M45.8288 39.9889L62.1761 66.1761L35.9943 49.8281L9.8125 66.1761L26.1599 39.9889L9.8125 13.8125L35.9943 30.1497L62.1761 13.8125L45.8288 39.9889Z" fill="#B2947C"/>
<path opacity="0.32" d="M24.3712 61.8558C24.3712 61.8558 37.6932 52.4599 42.7434 47.4364C47.8041 42.4232 58.4658 27.673 58.4658 27.673C61.3235 24.5204 64.5345 16.551 65.4281 14.2356C65.5217 13.9875 65.2827 13.7395 65.0333 13.8325C62.9965 14.6077 56.5434 17.1402 52.0439 19.993C46.422 23.5695 36.363 31.7456 31.6765 36.4074C26.9899 41.0691 20.9004 50.0515 17.4401 54.9406C14.5512 59.0339 10.935 66.6415 9.84386 69.0086C9.71916 69.267 9.98934 69.5358 10.2491 69.4221C12.7015 68.3987 20.651 64.9153 24.3712 61.8558Z" fill="#212121"/>
<path d="M58.3539 25.5976C61.5374 21.5368 64.5539 13.5376 65.4444 11.0566C65.5557 10.7562 65.2663 10.4669 64.9547 10.5671C62.4724 11.4571 54.4803 14.4832 50.4175 17.6651C45.5754 21.4589 29.4688 34.6871 29.4688 34.6871L41.3234 46.5469C41.3345 46.5469 54.5582 30.4372 58.3539 25.5976Z" fill="#F44336"/>
<path d="M13.6617 54.3946C10.4782 58.4554 7.46168 66.4546 6.57119 68.9356C6.45988 69.236 6.74929 69.5252 7.06096 69.4251C9.54319 68.5351 17.5353 65.5089 21.5982 62.3271C26.4402 58.5333 42.5469 45.3051 42.5469 45.3051L30.6811 33.4453C30.6811 33.4453 17.4574 49.5439 13.6617 54.3946Z" fill="#2F7889"/>
<path d="M34.3771 49.809C38.8958 49.809 42.559 46.1458 42.559 41.6271C42.559 37.1084 38.8958 33.4453 34.3771 33.4453C29.8584 33.4453 26.1953 37.1084 26.1953 41.6271C26.1953 46.1458 29.8584 49.809 34.3771 49.809Z" fill="#94D1E0"/>
<defs>
<linearGradient id="paint0_linear_675_12" x1="79.5391" y1="40" x2="339.539" y2="40" gradientUnits="userSpaceOnUse">
<stop stop-color="#3C81F5"/>
<stop offset="1" stop-color="#9334EA"/>
</linearGradient>
</defs>
</svg>
