<svg width="488" height="181" viewBox="0 0 488 181" fill="none" xmlns="http://www.w3.org/2000/svg">
<path d="M4.23 170V138.5H9.045L22.815 161.495H20.295L33.84 138.5H38.655L38.7 170H33.165L33.12 147.185H34.29L22.77 166.4H20.16L8.46 147.185H9.81V170H4.23ZM57.9635 170.315C55.2935 170.315 52.9535 169.79 50.9435 168.74C48.9635 167.66 47.4185 166.19 46.3085 164.33C45.2285 162.47 44.6885 160.355 44.6885 157.985C44.6885 155.585 45.2135 153.47 46.2635 151.64C47.3435 149.78 48.8135 148.325 50.6735 147.275C52.5635 146.225 54.7085 145.7 57.1085 145.7C59.4485 145.7 61.5335 146.21 63.3635 147.23C65.1935 148.25 66.6335 149.69 67.6835 151.55C68.7335 153.41 69.2585 155.6 69.2585 158.12C69.2585 158.36 69.2435 158.63 69.2135 158.93C69.2135 159.23 69.1985 159.515 69.1685 159.785H49.1435V156.05H66.1985L63.9935 157.22C64.0235 155.84 63.7385 154.625 63.1385 153.575C62.5385 152.525 61.7135 151.7 60.6635 151.1C59.6435 150.5 58.4585 150.2 57.1085 150.2C55.7285 150.2 54.5135 150.5 53.4635 151.1C52.4435 151.7 51.6335 152.54 51.0335 153.62C50.4635 154.67 50.1785 155.915 50.1785 157.355V158.255C50.1785 159.695 50.5085 160.97 51.1685 162.08C51.8285 163.19 52.7585 164.045 53.9585 164.645C55.1585 165.245 56.5385 165.545 58.0985 165.545C59.4485 165.545 60.6635 165.335 61.7435 164.915C62.8235 164.495 63.7835 163.835 64.6235 162.935L67.6385 166.4C66.5585 167.66 65.1935 168.635 63.5435 169.325C61.9235 169.985 60.0635 170.315 57.9635 170.315ZM84.8317 170.315C82.7917 170.315 80.9917 169.94 79.4317 169.19C77.8717 168.41 76.6567 167.24 75.7867 165.68C74.9167 164.09 74.4817 162.095 74.4817 159.695V145.97H80.1067V158.93C80.1067 161.09 80.5867 162.71 81.5467 163.79C82.5367 164.84 83.9317 165.365 85.7317 165.365C87.0517 165.365 88.1917 165.095 89.1517 164.555C90.1417 164.015 90.9067 163.205 91.4467 162.125C92.0167 161.045 92.3017 159.71 92.3017 158.12V145.97H97.9267V170H92.5717V163.52L93.5167 165.5C92.7067 167.06 91.5217 168.26 89.9617 169.1C88.4017 169.91 86.6917 170.315 84.8317 170.315ZM128.618 179.045C126.398 179.045 124.223 178.745 122.093 178.145C119.993 177.575 118.268 176.735 116.918 175.625L119.438 171.395C120.488 172.265 121.808 172.955 123.398 173.465C125.018 174.005 126.653 174.275 128.303 174.275C130.943 174.275 132.878 173.66 134.108 172.43C135.338 171.23 135.953 169.415 135.953 166.985V162.71L136.403 157.265L136.223 151.82V145.97H141.578V166.355C141.578 170.705 140.468 173.9 138.248 175.94C136.028 178.01 132.818 179.045 128.618 179.045ZM127.898 168.92C125.618 168.92 123.548 168.44 121.688 167.48C119.858 166.49 118.403 165.125 117.323 163.385C116.273 161.645 115.748 159.605 115.748 157.265C115.748 154.955 116.273 152.93 117.323 151.19C118.403 149.45 119.858 148.1 121.688 147.14C123.548 146.18 125.618 145.7 127.898 145.7C129.938 145.7 131.768 146.105 133.388 146.915C135.008 147.725 136.298 148.985 137.258 150.695C138.248 152.405 138.743 154.595 138.743 157.265C138.743 159.935 138.248 162.14 137.258 163.88C136.298 165.59 135.008 166.865 133.388 167.705C131.768 168.515 129.938 168.92 127.898 168.92ZM128.753 164.15C130.163 164.15 131.423 163.865 132.533 163.295C133.643 162.695 134.498 161.885 135.098 160.865C135.728 159.815 136.043 158.615 136.043 157.265C136.043 155.915 135.728 154.73 135.098 153.71C134.498 152.66 133.643 151.865 132.533 151.325C131.423 150.755 130.163 150.47 128.753 150.47C127.343 150.47 126.068 150.755 124.928 151.325C123.818 151.865 122.948 152.66 122.318 153.71C121.718 154.73 121.418 155.915 121.418 157.265C121.418 158.615 121.718 159.815 122.318 160.865C122.948 161.885 123.818 162.695 124.928 163.295C126.068 163.865 127.343 164.15 128.753 164.15ZM159.143 170.315C157.103 170.315 155.303 169.94 153.743 169.19C152.183 168.41 150.968 167.24 150.098 165.68C149.228 164.09 148.793 162.095 148.793 159.695V145.97H154.418V158.93C154.418 161.09 154.898 162.71 155.858 163.79C156.848 164.84 158.243 165.365 160.043 165.365C161.363 165.365 162.503 165.095 163.463 164.555C164.453 164.015 165.218 163.205 165.758 162.125C166.328 161.045 166.613 159.71 166.613 158.12V145.97H172.238V170H166.883V163.52L167.828 165.5C167.018 167.06 165.833 168.26 164.273 169.1C162.713 169.91 161.003 170.315 159.143 170.315ZM179.603 170V145.97H185.228V170H179.603ZM182.438 142.01C181.388 142.01 180.518 141.68 179.828 141.02C179.168 140.36 178.838 139.565 178.838 138.635C178.838 137.675 179.168 136.88 179.828 136.25C180.518 135.59 181.388 135.26 182.438 135.26C183.488 135.26 184.343 135.575 185.003 136.205C185.693 136.805 186.038 137.57 186.038 138.5C186.038 139.49 185.708 140.33 185.048 141.02C184.388 141.68 183.518 142.01 182.438 142.01ZM207.416 170V165.14L207.101 164.105V155.6C207.101 153.95 206.606 152.675 205.616 151.775C204.626 150.845 203.126 150.38 201.116 150.38C199.766 150.38 198.431 150.59 197.111 151.01C195.821 151.43 194.726 152.015 193.826 152.765L191.621 148.67C192.911 147.68 194.441 146.945 196.211 146.465C198.011 145.955 199.871 145.7 201.791 145.7C205.271 145.7 207.956 146.54 209.846 148.22C211.766 149.87 212.726 152.435 212.726 155.915V170H207.416ZM199.856 170.315C198.056 170.315 196.481 170.015 195.131 169.415C193.781 168.785 192.731 167.93 191.981 166.85C191.261 165.74 190.901 164.495 190.901 163.115C190.901 161.765 191.216 160.55 191.846 159.47C192.506 158.39 193.571 157.535 195.041 156.905C196.511 156.275 198.461 155.96 200.891 155.96H207.866V159.695H201.296C199.376 159.695 198.086 160.01 197.426 160.64C196.766 161.24 196.436 161.99 196.436 162.89C196.436 163.91 196.841 164.72 197.651 165.32C198.461 165.92 199.586 166.22 201.026 166.22C202.406 166.22 203.636 165.905 204.716 165.275C205.826 164.645 206.621 163.715 207.101 162.485L208.046 165.86C207.506 167.27 206.531 168.365 205.121 169.145C203.741 169.925 201.986 170.315 199.856 170.315ZM242.551 170.315C240.241 170.315 238.156 169.805 236.296 168.785C234.466 167.735 233.026 166.295 231.976 164.465C230.926 162.635 230.401 160.475 230.401 157.985C230.401 155.495 230.926 153.335 231.976 151.505C233.026 149.675 234.466 148.25 236.296 147.23C238.156 146.21 240.241 145.7 242.551 145.7C244.561 145.7 246.361 146.15 247.951 147.05C249.541 147.92 250.801 149.255 251.731 151.055C252.661 152.855 253.126 155.165 253.126 157.985C253.126 160.775 252.676 163.085 251.776 164.915C250.876 166.715 249.631 168.065 248.041 168.965C246.451 169.865 244.621 170.315 242.551 170.315ZM243.226 165.5C244.576 165.5 245.776 165.2 246.826 164.6C247.906 164 248.761 163.13 249.391 161.99C250.051 160.85 250.381 159.515 250.381 157.985C250.381 156.425 250.051 155.09 249.391 153.98C248.761 152.84 247.906 151.97 246.826 151.37C245.776 150.77 244.576 150.47 243.226 150.47C241.876 150.47 240.661 150.77 239.581 151.37C238.531 151.97 237.676 152.84 237.016 153.98C236.386 155.09 236.071 156.425 236.071 157.985C236.071 159.515 236.386 160.85 237.016 161.99C237.676 163.13 238.531 164 239.581 164.6C240.661 165.2 241.876 165.5 243.226 165.5ZM250.516 170V164.33L250.741 157.94L250.291 151.55V136.61H255.871V170H250.516ZM274.57 170.315C271.9 170.315 269.56 169.79 267.55 168.74C265.57 167.66 264.025 166.19 262.915 164.33C261.835 162.47 261.295 160.355 261.295 157.985C261.295 155.585 261.82 153.47 262.87 151.64C263.95 149.78 265.42 148.325 267.28 147.275C269.17 146.225 271.315 145.7 273.715 145.7C276.055 145.7 278.14 146.21 279.97 147.23C281.8 148.25 283.24 149.69 284.29 151.55C285.34 153.41 285.865 155.6 285.865 158.12C285.865 158.36 285.85 158.63 285.82 158.93C285.82 159.23 285.805 159.515 285.775 159.785H265.75V156.05H282.805L280.6 157.22C280.63 155.84 280.345 154.625 279.745 153.575C279.145 152.525 278.32 151.7 277.27 151.1C276.25 150.5 275.065 150.2 273.715 150.2C272.335 150.2 271.12 150.5 270.07 151.1C269.05 151.7 268.24 152.54 267.64 153.62C267.07 154.67 266.785 155.915 266.785 157.355V158.255C266.785 159.695 267.115 160.97 267.775 162.08C268.435 163.19 269.365 164.045 270.565 164.645C271.765 165.245 273.145 165.545 274.705 165.545C276.055 165.545 277.27 165.335 278.35 164.915C279.43 164.495 280.39 163.835 281.23 162.935L284.245 166.4C283.165 167.66 281.8 168.635 280.15 169.325C278.53 169.985 276.67 170.315 274.57 170.315ZM311.13 170.315C309.12 170.315 307.185 170.06 305.325 169.55C303.495 169.01 302.04 168.365 300.96 167.615L303.12 163.34C304.2 164.03 305.49 164.6 306.99 165.05C308.49 165.5 309.99 165.725 311.49 165.725C313.26 165.725 314.535 165.485 315.315 165.005C316.125 164.525 316.53 163.88 316.53 163.07C316.53 162.41 316.26 161.915 315.72 161.585C315.18 161.225 314.475 160.955 313.605 160.775C312.735 160.595 311.76 160.43 310.68 160.28C309.63 160.13 308.565 159.935 307.485 159.695C306.435 159.425 305.475 159.05 304.605 158.57C303.735 158.06 303.03 157.385 302.49 156.545C301.95 155.705 301.68 154.595 301.68 153.215C301.68 151.685 302.115 150.365 302.985 149.255C303.855 148.115 305.07 147.245 306.63 146.645C308.22 146.015 310.095 145.7 312.255 145.7C313.875 145.7 315.51 145.88 317.16 146.24C318.81 146.6 320.175 147.11 321.255 147.77L319.095 152.045C317.955 151.355 316.8 150.89 315.63 150.65C314.49 150.38 313.35 150.245 312.21 150.245C310.5 150.245 309.225 150.5 308.385 151.01C307.575 151.52 307.17 152.165 307.17 152.945C307.17 153.665 307.44 154.205 307.98 154.565C308.52 154.925 309.225 155.21 310.095 155.42C310.965 155.63 311.925 155.81 312.975 155.96C314.055 156.08 315.12 156.275 316.17 156.545C317.22 156.815 318.18 157.19 319.05 157.67C319.95 158.12 320.67 158.765 321.21 159.605C321.75 160.445 322.02 161.54 322.02 162.89C322.02 164.39 321.57 165.695 320.67 166.805C319.8 167.915 318.555 168.785 316.935 169.415C315.315 170.015 313.38 170.315 311.13 170.315ZM338.159 170.315C335.489 170.315 333.149 169.79 331.139 168.74C329.159 167.66 327.614 166.19 326.504 164.33C325.424 162.47 324.884 160.355 324.884 157.985C324.884 155.585 325.409 153.47 326.459 151.64C327.539 149.78 329.009 148.325 330.869 147.275C332.759 146.225 334.904 145.7 337.304 145.7C339.644 145.7 341.729 146.21 343.559 147.23C345.389 148.25 346.829 149.69 347.879 151.55C348.929 153.41 349.454 155.6 349.454 158.12C349.454 158.36 349.439 158.63 349.409 158.93C349.409 159.23 349.394 159.515 349.364 159.785H329.339V156.05H346.394L344.189 157.22C344.219 155.84 343.934 154.625 343.334 153.575C342.734 152.525 341.909 151.7 340.859 151.1C339.839 150.5 338.654 150.2 337.304 150.2C335.924 150.2 334.709 150.5 333.659 151.1C332.639 151.7 331.829 152.54 331.229 153.62C330.659 154.67 330.374 155.915 330.374 157.355V158.255C330.374 159.695 330.704 160.97 331.364 162.08C332.024 163.19 332.954 164.045 334.154 164.645C335.354 165.245 336.734 165.545 338.294 165.545C339.644 165.545 340.859 165.335 341.939 164.915C343.019 164.495 343.979 163.835 344.819 162.935L347.834 166.4C346.754 167.66 345.389 168.635 343.739 169.325C342.119 169.985 340.259 170.315 338.159 170.315ZM354.857 170V145.97H360.212V152.585L359.582 150.65C360.302 149.03 361.427 147.8 362.957 146.96C364.517 146.12 366.452 145.7 368.762 145.7V151.055C368.522 150.995 368.297 150.965 368.087 150.965C367.877 150.935 367.667 150.92 367.457 150.92C365.327 150.92 363.632 151.55 362.372 152.81C361.112 154.04 360.482 155.885 360.482 158.345V170H354.857ZM380.803 170L370.498 145.97H376.348L385.213 167.165H382.333L391.513 145.97H396.913L386.608 170H380.803ZM400.428 170V145.97H406.053V170H400.428ZM403.263 142.01C402.213 142.01 401.343 141.68 400.653 141.02C399.993 140.36 399.663 139.565 399.663 138.635C399.663 137.675 399.993 136.88 400.653 136.25C401.343 135.59 402.213 135.26 403.263 135.26C404.313 135.26 405.168 135.575 405.828 136.205C406.518 136.805 406.863 137.57 406.863 138.5C406.863 139.49 406.533 140.33 405.873 141.02C405.213 141.68 404.343 142.01 403.263 142.01ZM424.461 170.315C421.941 170.315 419.691 169.79 417.711 168.74C415.761 167.66 414.231 166.19 413.121 164.33C412.011 162.47 411.456 160.355 411.456 157.985C411.456 155.585 412.011 153.47 413.121 151.64C414.231 149.78 415.761 148.325 417.711 147.275C419.691 146.225 421.941 145.7 424.461 145.7C426.801 145.7 428.856 146.18 430.626 147.14C432.426 148.07 433.791 149.45 434.721 151.28L430.401 153.8C429.681 152.66 428.796 151.82 427.746 151.28C426.726 150.74 425.616 150.47 424.416 150.47C423.036 150.47 421.791 150.77 420.681 151.37C419.571 151.97 418.701 152.84 418.071 153.98C417.441 155.09 417.126 156.425 417.126 157.985C417.126 159.545 417.441 160.895 418.071 162.035C418.701 163.145 419.571 164 420.681 164.6C421.791 165.2 423.036 165.5 424.416 165.5C425.616 165.5 426.726 165.23 427.746 164.69C428.796 164.15 429.681 163.31 430.401 162.17L434.721 164.69C433.791 166.49 432.426 167.885 430.626 168.875C428.856 169.835 426.801 170.315 424.461 170.315ZM422.121 180.26C421.311 180.26 420.561 180.17 419.871 179.99C419.181 179.84 418.551 179.615 417.981 179.315L419.016 176.66C419.496 176.9 419.976 177.08 420.456 177.2C420.966 177.32 421.506 177.38 422.076 177.38C422.946 177.38 423.561 177.23 423.921 176.93C424.281 176.63 424.461 176.24 424.461 175.76C424.461 175.31 424.266 174.95 423.876 174.68C423.516 174.41 422.916 174.275 422.076 174.275H420.681L421.896 169.685H424.956L424.326 172.205C425.646 172.355 426.621 172.775 427.251 173.465C427.911 174.185 428.241 175.025 428.241 175.985C428.241 177.305 427.686 178.34 426.576 179.09C425.466 179.87 423.981 180.26 422.121 180.26ZM450.032 170.315C447.572 170.315 445.382 169.79 443.462 168.74C441.542 167.66 440.027 166.19 438.917 164.33C437.807 162.47 437.252 160.355 437.252 157.985C437.252 155.585 437.807 153.47 438.917 151.64C440.027 149.78 441.542 148.325 443.462 147.275C445.382 146.225 447.572 145.7 450.032 145.7C452.522 145.7 454.727 146.225 456.647 147.275C458.597 148.325 460.112 149.765 461.192 151.595C462.302 153.425 462.857 155.555 462.857 157.985C462.857 160.355 462.302 162.47 461.192 164.33C460.112 166.19 458.597 167.66 456.647 168.74C454.727 169.79 452.522 170.315 450.032 170.315ZM450.032 165.5C451.412 165.5 452.642 165.2 453.722 164.6C454.802 164 455.642 163.13 456.242 161.99C456.872 160.85 457.187 159.515 457.187 157.985C457.187 156.425 456.872 155.09 456.242 153.98C455.642 152.84 454.802 151.97 453.722 151.37C452.642 150.77 451.427 150.47 450.077 150.47C448.697 150.47 447.467 150.77 446.387 151.37C445.337 151.97 444.497 152.84 443.867 153.98C443.237 155.09 442.922 156.425 442.922 157.985C442.922 159.515 443.237 160.85 443.867 161.99C444.497 163.13 445.337 164 446.387 164.6C447.467 165.2 448.682 165.5 450.032 165.5ZM475.661 170.315C473.651 170.315 471.716 170.06 469.856 169.55C468.026 169.01 466.571 168.365 465.491 167.615L467.651 163.34C468.731 164.03 470.021 164.6 471.521 165.05C473.021 165.5 474.521 165.725 476.021 165.725C477.791 165.725 479.066 165.485 479.846 165.005C480.656 164.525 481.061 163.88 481.061 163.07C481.061 162.41 480.791 161.915 480.251 161.585C479.711 161.225 479.006 160.955 478.136 160.775C477.266 160.595 476.291 160.43 475.211 160.28C474.161 160.13 473.096 159.935 472.016 159.695C470.966 159.425 470.006 159.05 469.136 158.57C468.266 158.06 467.561 157.385 467.021 156.545C466.481 155.705 466.211 154.595 466.211 153.215C466.211 151.685 466.646 150.365 467.516 149.255C468.386 148.115 469.601 147.245 471.161 146.645C472.751 146.015 474.626 145.7 476.786 145.7C478.406 145.7 480.041 145.88 481.691 146.24C483.341 146.6 484.706 147.11 485.786 147.77L483.626 152.045C482.486 151.355 481.331 150.89 480.161 150.65C479.021 150.38 477.881 150.245 476.741 150.245C475.031 150.245 473.756 150.5 472.916 151.01C472.106 151.52 471.701 152.165 471.701 152.945C471.701 153.665 471.971 154.205 472.511 154.565C473.051 154.925 473.756 155.21 474.626 155.42C475.496 155.63 476.456 155.81 477.506 155.96C478.586 156.08 479.651 156.275 480.701 156.545C481.751 156.815 482.711 157.19 483.581 157.67C484.481 158.12 485.201 158.765 485.741 159.605C486.281 160.445 486.551 161.54 486.551 162.89C486.551 164.39 486.101 165.695 485.201 166.805C484.331 167.915 483.086 168.785 481.466 169.415C479.846 170.015 477.911 170.315 475.661 170.315Z" fill="url(#paint0_linear_579_102)"/>
<path d="M254.118 67.1279L243.5 113L232.882 67.1279L187 56.5L232.882 45.8887L243.5 0L254.118 45.8887L300 56.5L254.118 67.1279Z" fill="#E0C3AB"/>
<path d="M258.924 56.4808L284.58 97.5803L243.489 71.9229L202.398 97.5803L228.055 56.4808L202.398 15.3984L243.489 41.0388L284.58 15.3984L258.924 56.4808Z" fill="#B2947C"/>
<path opacity="0.32" d="M225.248 90.7996C225.248 90.7996 246.156 76.0534 254.082 68.1692C262.024 60.3013 278.757 37.1518 278.757 37.1518C283.242 32.2039 288.282 19.6963 289.684 16.0625C289.831 15.6732 289.456 15.2838 289.064 15.4298C285.868 16.6465 275.74 20.621 268.678 25.0984C259.855 30.7114 244.068 43.5434 236.713 50.8598C229.357 58.1762 219.8 72.2735 214.369 79.9468C209.836 86.3709 204.16 98.3107 202.448 102.026C202.252 102.431 202.676 102.853 203.084 102.675C206.933 101.068 219.409 95.6015 225.248 90.7996Z" fill="#212121"/>
<path d="M278.576 33.8869C283.572 27.5137 288.306 14.9594 289.704 11.0656C289.879 10.5942 289.425 10.1402 288.935 10.2973C285.04 11.6942 272.496 16.4435 266.12 21.4373C258.521 27.3915 233.242 48.1524 233.242 48.1524L251.847 66.7656C251.865 66.7656 272.619 41.4824 278.576 33.8869Z" fill="#F44336"/>
<path d="M208.432 79.1053C203.436 85.4785 198.701 98.0328 197.304 101.927C197.129 102.398 197.583 102.852 198.072 102.695C201.968 101.298 214.511 96.5487 220.888 91.5549C228.487 85.6007 253.766 64.8398 253.766 64.8398L235.143 46.2266C235.143 46.2266 214.389 71.4924 208.432 79.1053Z" fill="#2F7889"/>
<path d="M240.95 71.9084C248.042 71.9084 253.791 66.1593 253.791 59.0675C253.791 51.9756 248.042 46.2266 240.95 46.2266C233.858 46.2266 228.109 51.9756 228.109 59.0675C228.109 66.1593 233.858 71.9084 240.95 71.9084Z" fill="#94D1E0"/>
<defs>
<linearGradient id="paint0_linear_579_102" x1="0" y1="153.5" x2="488" y2="153.5" gradientUnits="userSpaceOnUse">
<stop stop-color="#3C81F5"/>
<stop offset="1" stop-color="#9334EA"/>
</linearGradient>
</defs>
</svg>
