<svg width="543" height="55" viewBox="0 0 543 55" fill="none" xmlns="http://www.w3.org/2000/svg">
<path d="M59.23 44V12.5H64.045L77.815 35.495H75.295L88.84 12.5H93.655L93.7 44H88.165L88.12 21.185H89.29L77.77 40.4H75.16L63.46 21.185H64.81V44H59.23ZM112.964 44.315C110.294 44.315 107.954 43.79 105.944 42.74C103.964 41.66 102.419 40.19 101.309 38.33C100.229 36.47 99.6885 34.355 99.6885 31.985C99.6885 29.585 100.214 27.47 101.264 25.64C102.344 23.78 103.814 22.325 105.674 21.275C107.564 20.225 109.709 19.7 112.109 19.7C114.449 19.7 116.534 20.21 118.364 21.23C120.194 22.25 121.634 23.69 122.684 25.55C123.734 27.41 124.259 29.6 124.259 32.12C124.259 32.36 124.244 32.63 124.214 32.93C124.214 33.23 124.199 33.515 124.169 33.785H104.144V30.05H121.199L118.994 31.22C119.024 29.84 118.739 28.625 118.139 27.575C117.539 26.525 116.714 25.7 115.664 25.1C114.644 24.5 113.459 24.2 112.109 24.2C110.729 24.2 109.514 24.5 108.464 25.1C107.444 25.7 106.634 26.54 106.034 27.62C105.464 28.67 105.179 29.915 105.179 31.355V32.255C105.179 33.695 105.509 34.97 106.169 36.08C106.829 37.19 107.759 38.045 108.959 38.645C110.159 39.245 111.539 39.545 113.099 39.545C114.449 39.545 115.664 39.335 116.744 38.915C117.824 38.495 118.784 37.835 119.624 36.935L122.639 40.4C121.559 41.66 120.194 42.635 118.544 43.325C116.924 43.985 115.064 44.315 112.964 44.315ZM139.832 44.315C137.792 44.315 135.992 43.94 134.432 43.19C132.872 42.41 131.657 41.24 130.787 39.68C129.917 38.09 129.482 36.095 129.482 33.695V19.97H135.107V32.93C135.107 35.09 135.587 36.71 136.547 37.79C137.537 38.84 138.932 39.365 140.732 39.365C142.052 39.365 143.192 39.095 144.152 38.555C145.142 38.015 145.907 37.205 146.447 36.125C147.017 35.045 147.302 33.71 147.302 32.12V19.97H152.927V44H147.572V37.52L148.517 39.5C147.707 41.06 146.522 42.26 144.962 43.1C143.402 43.91 141.692 44.315 139.832 44.315ZM183.618 53.045C181.398 53.045 179.223 52.745 177.093 52.145C174.993 51.575 173.268 50.735 171.918 49.625L174.438 45.395C175.488 46.265 176.808 46.955 178.398 47.465C180.018 48.005 181.653 48.275 183.303 48.275C185.943 48.275 187.878 47.66 189.108 46.43C190.338 45.23 190.953 43.415 190.953 40.985V36.71L191.403 31.265L191.223 25.82V19.97H196.578V40.355C196.578 44.705 195.468 47.9 193.248 49.94C191.028 52.01 187.818 53.045 183.618 53.045ZM182.898 42.92C180.618 42.92 178.548 42.44 176.688 41.48C174.858 40.49 173.403 39.125 172.323 37.385C171.273 35.645 170.748 33.605 170.748 31.265C170.748 28.955 171.273 26.93 172.323 25.19C173.403 23.45 174.858 22.1 176.688 21.14C178.548 20.18 180.618 19.7 182.898 19.7C184.938 19.7 186.768 20.105 188.388 20.915C190.008 21.725 191.298 22.985 192.258 24.695C193.248 26.405 193.743 28.595 193.743 31.265C193.743 33.935 193.248 36.14 192.258 37.88C191.298 39.59 190.008 40.865 188.388 41.705C186.768 42.515 184.938 42.92 182.898 42.92ZM183.753 38.15C185.163 38.15 186.423 37.865 187.533 37.295C188.643 36.695 189.498 35.885 190.098 34.865C190.728 33.815 191.043 32.615 191.043 31.265C191.043 29.915 190.728 28.73 190.098 27.71C189.498 26.66 188.643 25.865 187.533 25.325C186.423 24.755 185.163 24.47 183.753 24.47C182.343 24.47 181.068 24.755 179.928 25.325C178.818 25.865 177.948 26.66 177.318 27.71C176.718 28.73 176.418 29.915 176.418 31.265C176.418 32.615 176.718 33.815 177.318 34.865C177.948 35.885 178.818 36.695 179.928 37.295C181.068 37.865 182.343 38.15 183.753 38.15ZM214.143 44.315C212.103 44.315 210.303 43.94 208.743 43.19C207.183 42.41 205.968 41.24 205.098 39.68C204.228 38.09 203.793 36.095 203.793 33.695V19.97H209.418V32.93C209.418 35.09 209.898 36.71 210.858 37.79C211.848 38.84 213.243 39.365 215.043 39.365C216.363 39.365 217.503 39.095 218.463 38.555C219.453 38.015 220.218 37.205 220.758 36.125C221.328 35.045 221.613 33.71 221.613 32.12V19.97H227.238V44H221.883V37.52L222.828 39.5C222.018 41.06 220.833 42.26 219.273 43.1C217.713 43.91 216.003 44.315 214.143 44.315ZM234.603 44V19.97H240.228V44H234.603ZM237.438 16.01C236.388 16.01 235.518 15.68 234.828 15.02C234.168 14.36 233.838 13.565 233.838 12.635C233.838 11.675 234.168 10.88 234.828 10.25C235.518 9.59 236.388 9.26 237.438 9.26C238.488 9.26 239.343 9.575 240.003 10.205C240.693 10.805 241.038 11.57 241.038 12.5C241.038 13.49 240.708 14.33 240.048 15.02C239.388 15.68 238.518 16.01 237.438 16.01ZM262.416 44V39.14L262.101 38.105V29.6C262.101 27.95 261.606 26.675 260.616 25.775C259.626 24.845 258.126 24.38 256.116 24.38C254.766 24.38 253.431 24.59 252.111 25.01C250.821 25.43 249.726 26.015 248.826 26.765L246.621 22.67C247.911 21.68 249.441 20.945 251.211 20.465C253.011 19.955 254.871 19.7 256.791 19.7C260.271 19.7 262.956 20.54 264.846 22.22C266.766 23.87 267.726 26.435 267.726 29.915V44H262.416ZM254.856 44.315C253.056 44.315 251.481 44.015 250.131 43.415C248.781 42.785 247.731 41.93 246.981 40.85C246.261 39.74 245.901 38.495 245.901 37.115C245.901 35.765 246.216 34.55 246.846 33.47C247.506 32.39 248.571 31.535 250.041 30.905C251.511 30.275 253.461 29.96 255.891 29.96H262.866V33.695H256.296C254.376 33.695 253.086 34.01 252.426 34.64C251.766 35.24 251.436 35.99 251.436 36.89C251.436 37.91 251.841 38.72 252.651 39.32C253.461 39.92 254.586 40.22 256.026 40.22C257.406 40.22 258.636 39.905 259.716 39.275C260.826 38.645 261.621 37.715 262.101 36.485L263.046 39.86C262.506 41.27 261.531 42.365 260.121 43.145C258.741 43.925 256.986 44.315 254.856 44.315ZM297.551 44.315C295.241 44.315 293.156 43.805 291.296 42.785C289.466 41.735 288.026 40.295 286.976 38.465C285.926 36.635 285.401 34.475 285.401 31.985C285.401 29.495 285.926 27.335 286.976 25.505C288.026 23.675 289.466 22.25 291.296 21.23C293.156 20.21 295.241 19.7 297.551 19.7C299.561 19.7 301.361 20.15 302.951 21.05C304.541 21.92 305.801 23.255 306.731 25.055C307.661 26.855 308.126 29.165 308.126 31.985C308.126 34.775 307.676 37.085 306.776 38.915C305.876 40.715 304.631 42.065 303.041 42.965C301.451 43.865 299.621 44.315 297.551 44.315ZM298.226 39.5C299.576 39.5 300.776 39.2 301.826 38.6C302.906 38 303.761 37.13 304.391 35.99C305.051 34.85 305.381 33.515 305.381 31.985C305.381 30.425 305.051 29.09 304.391 27.98C303.761 26.84 302.906 25.97 301.826 25.37C300.776 24.77 299.576 24.47 298.226 24.47C296.876 24.47 295.661 24.77 294.581 25.37C293.531 25.97 292.676 26.84 292.016 27.98C291.386 29.09 291.071 30.425 291.071 31.985C291.071 33.515 291.386 34.85 292.016 35.99C292.676 37.13 293.531 38 294.581 38.6C295.661 39.2 296.876 39.5 298.226 39.5ZM305.516 44V38.33L305.741 31.94L305.291 25.55V10.61H310.871V44H305.516ZM329.57 44.315C326.9 44.315 324.56 43.79 322.55 42.74C320.57 41.66 319.025 40.19 317.915 38.33C316.835 36.47 316.295 34.355 316.295 31.985C316.295 29.585 316.82 27.47 317.87 25.64C318.95 23.78 320.42 22.325 322.28 21.275C324.17 20.225 326.315 19.7 328.715 19.7C331.055 19.7 333.14 20.21 334.97 21.23C336.8 22.25 338.24 23.69 339.29 25.55C340.34 27.41 340.865 29.6 340.865 32.12C340.865 32.36 340.85 32.63 340.82 32.93C340.82 33.23 340.805 33.515 340.775 33.785H320.75V30.05H337.805L335.6 31.22C335.63 29.84 335.345 28.625 334.745 27.575C334.145 26.525 333.32 25.7 332.27 25.1C331.25 24.5 330.065 24.2 328.715 24.2C327.335 24.2 326.12 24.5 325.07 25.1C324.05 25.7 323.24 26.54 322.64 27.62C322.07 28.67 321.785 29.915 321.785 31.355V32.255C321.785 33.695 322.115 34.97 322.775 36.08C323.435 37.19 324.365 38.045 325.565 38.645C326.765 39.245 328.145 39.545 329.705 39.545C331.055 39.545 332.27 39.335 333.35 38.915C334.43 38.495 335.39 37.835 336.23 36.935L339.245 40.4C338.165 41.66 336.8 42.635 335.15 43.325C333.53 43.985 331.67 44.315 329.57 44.315ZM366.13 44.315C364.12 44.315 362.185 44.06 360.325 43.55C358.495 43.01 357.04 42.365 355.96 41.615L358.12 37.34C359.2 38.03 360.49 38.6 361.99 39.05C363.49 39.5 364.99 39.725 366.49 39.725C368.26 39.725 369.535 39.485 370.315 39.005C371.125 38.525 371.53 37.88 371.53 37.07C371.53 36.41 371.26 35.915 370.72 35.585C370.18 35.225 369.475 34.955 368.605 34.775C367.735 34.595 366.76 34.43 365.68 34.28C364.63 34.13 363.565 33.935 362.485 33.695C361.435 33.425 360.475 33.05 359.605 32.57C358.735 32.06 358.03 31.385 357.49 30.545C356.95 29.705 356.68 28.595 356.68 27.215C356.68 25.685 357.115 24.365 357.985 23.255C358.855 22.115 360.07 21.245 361.63 20.645C363.22 20.015 365.095 19.7 367.255 19.7C368.875 19.7 370.51 19.88 372.16 20.24C373.81 20.6 375.175 21.11 376.255 21.77L374.095 26.045C372.955 25.355 371.8 24.89 370.63 24.65C369.49 24.38 368.35 24.245 367.21 24.245C365.5 24.245 364.225 24.5 363.385 25.01C362.575 25.52 362.17 26.165 362.17 26.945C362.17 27.665 362.44 28.205 362.98 28.565C363.52 28.925 364.225 29.21 365.095 29.42C365.965 29.63 366.925 29.81 367.975 29.96C369.055 30.08 370.12 30.275 371.17 30.545C372.22 30.815 373.18 31.19 374.05 31.67C374.95 32.12 375.67 32.765 376.21 33.605C376.75 34.445 377.02 35.54 377.02 36.89C377.02 38.39 376.57 39.695 375.67 40.805C374.8 41.915 373.555 42.785 371.935 43.415C370.315 44.015 368.38 44.315 366.13 44.315ZM393.159 44.315C390.489 44.315 388.149 43.79 386.139 42.74C384.159 41.66 382.614 40.19 381.504 38.33C380.424 36.47 379.884 34.355 379.884 31.985C379.884 29.585 380.409 27.47 381.459 25.64C382.539 23.78 384.009 22.325 385.869 21.275C387.759 20.225 389.904 19.7 392.304 19.7C394.644 19.7 396.729 20.21 398.559 21.23C400.389 22.25 401.829 23.69 402.879 25.55C403.929 27.41 404.454 29.6 404.454 32.12C404.454 32.36 404.439 32.63 404.409 32.93C404.409 33.23 404.394 33.515 404.364 33.785H384.339V30.05H401.394L399.189 31.22C399.219 29.84 398.934 28.625 398.334 27.575C397.734 26.525 396.909 25.7 395.859 25.1C394.839 24.5 393.654 24.2 392.304 24.2C390.924 24.2 389.709 24.5 388.659 25.1C387.639 25.7 386.829 26.54 386.229 27.62C385.659 28.67 385.374 29.915 385.374 31.355V32.255C385.374 33.695 385.704 34.97 386.364 36.08C387.024 37.19 387.954 38.045 389.154 38.645C390.354 39.245 391.734 39.545 393.294 39.545C394.644 39.545 395.859 39.335 396.939 38.915C398.019 38.495 398.979 37.835 399.819 36.935L402.834 40.4C401.754 41.66 400.389 42.635 398.739 43.325C397.119 43.985 395.259 44.315 393.159 44.315ZM409.857 44V19.97H415.212V26.585L414.582 24.65C415.302 23.03 416.427 21.8 417.957 20.96C419.517 20.12 421.452 19.7 423.762 19.7V25.055C423.522 24.995 423.297 24.965 423.087 24.965C422.877 24.935 422.667 24.92 422.457 24.92C420.327 24.92 418.632 25.55 417.372 26.81C416.112 28.04 415.482 29.885 415.482 32.345V44H409.857ZM435.803 44L425.498 19.97H431.348L440.213 41.165H437.333L446.513 19.97H451.913L441.608 44H435.803ZM455.428 44V19.97H461.053V44H455.428ZM458.263 16.01C457.213 16.01 456.343 15.68 455.653 15.02C454.993 14.36 454.663 13.565 454.663 12.635C454.663 11.675 454.993 10.88 455.653 10.25C456.343 9.59 457.213 9.26 458.263 9.26C459.313 9.26 460.168 9.575 460.828 10.205C461.518 10.805 461.863 11.57 461.863 12.5C461.863 13.49 461.533 14.33 460.873 15.02C460.213 15.68 459.343 16.01 458.263 16.01ZM479.461 44.315C476.941 44.315 474.691 43.79 472.711 42.74C470.761 41.66 469.231 40.19 468.121 38.33C467.011 36.47 466.456 34.355 466.456 31.985C466.456 29.585 467.011 27.47 468.121 25.64C469.231 23.78 470.761 22.325 472.711 21.275C474.691 20.225 476.941 19.7 479.461 19.7C481.801 19.7 483.856 20.18 485.626 21.14C487.426 22.07 488.791 23.45 489.721 25.28L485.401 27.8C484.681 26.66 483.796 25.82 482.746 25.28C481.726 24.74 480.616 24.47 479.416 24.47C478.036 24.47 476.791 24.77 475.681 25.37C474.571 25.97 473.701 26.84 473.071 27.98C472.441 29.09 472.126 30.425 472.126 31.985C472.126 33.545 472.441 34.895 473.071 36.035C473.701 37.145 474.571 38 475.681 38.6C476.791 39.2 478.036 39.5 479.416 39.5C480.616 39.5 481.726 39.23 482.746 38.69C483.796 38.15 484.681 37.31 485.401 36.17L489.721 38.69C488.791 40.49 487.426 41.885 485.626 42.875C483.856 43.835 481.801 44.315 479.461 44.315ZM477.121 54.26C476.311 54.26 475.561 54.17 474.871 53.99C474.181 53.84 473.551 53.615 472.981 53.315L474.016 50.66C474.496 50.9 474.976 51.08 475.456 51.2C475.966 51.32 476.506 51.38 477.076 51.38C477.946 51.38 478.561 51.23 478.921 50.93C479.281 50.63 479.461 50.24 479.461 49.76C479.461 49.31 479.266 48.95 478.876 48.68C478.516 48.41 477.916 48.275 477.076 48.275H475.681L476.896 43.685H479.956L479.326 46.205C480.646 46.355 481.621 46.775 482.251 47.465C482.911 48.185 483.241 49.025 483.241 49.985C483.241 51.305 482.686 52.34 481.576 53.09C480.466 53.87 478.981 54.26 477.121 54.26ZM505.032 44.315C502.572 44.315 500.382 43.79 498.462 42.74C496.542 41.66 495.027 40.19 493.917 38.33C492.807 36.47 492.252 34.355 492.252 31.985C492.252 29.585 492.807 27.47 493.917 25.64C495.027 23.78 496.542 22.325 498.462 21.275C500.382 20.225 502.572 19.7 505.032 19.7C507.522 19.7 509.727 20.225 511.647 21.275C513.597 22.325 515.112 23.765 516.192 25.595C517.302 27.425 517.857 29.555 517.857 31.985C517.857 34.355 517.302 36.47 516.192 38.33C515.112 40.19 513.597 41.66 511.647 42.74C509.727 43.79 507.522 44.315 505.032 44.315ZM505.032 39.5C506.412 39.5 507.642 39.2 508.722 38.6C509.802 38 510.642 37.13 511.242 35.99C511.872 34.85 512.187 33.515 512.187 31.985C512.187 30.425 511.872 29.09 511.242 27.98C510.642 26.84 509.802 25.97 508.722 25.37C507.642 24.77 506.427 24.47 505.077 24.47C503.697 24.47 502.467 24.77 501.387 25.37C500.337 25.97 499.497 26.84 498.867 27.98C498.237 29.09 497.922 30.425 497.922 31.985C497.922 33.515 498.237 34.85 498.867 35.99C499.497 37.13 500.337 38 501.387 38.6C502.467 39.2 503.682 39.5 505.032 39.5ZM530.661 44.315C528.651 44.315 526.716 44.06 524.856 43.55C523.026 43.01 521.571 42.365 520.491 41.615L522.651 37.34C523.731 38.03 525.021 38.6 526.521 39.05C528.021 39.5 529.521 39.725 531.021 39.725C532.791 39.725 534.066 39.485 534.846 39.005C535.656 38.525 536.061 37.88 536.061 37.07C536.061 36.41 535.791 35.915 535.251 35.585C534.711 35.225 534.006 34.955 533.136 34.775C532.266 34.595 531.291 34.43 530.211 34.28C529.161 34.13 528.096 33.935 527.016 33.695C525.966 33.425 525.006 33.05 524.136 32.57C523.266 32.06 522.561 31.385 522.021 30.545C521.481 29.705 521.211 28.595 521.211 27.215C521.211 25.685 521.646 24.365 522.516 23.255C523.386 22.115 524.601 21.245 526.161 20.645C527.751 20.015 529.626 19.7 531.786 19.7C533.406 19.7 535.041 19.88 536.691 20.24C538.341 20.6 539.706 21.11 540.786 21.77L538.626 26.045C537.486 25.355 536.331 24.89 535.161 24.65C534.021 24.38 532.881 24.245 531.741 24.245C530.031 24.245 528.756 24.5 527.916 25.01C527.106 25.52 526.701 26.165 526.701 26.945C526.701 27.665 526.971 28.205 527.511 28.565C528.051 28.925 528.756 29.21 529.626 29.42C530.496 29.63 531.456 29.81 532.506 29.96C533.586 30.08 534.651 30.275 535.701 30.545C536.751 30.815 537.711 31.19 538.581 31.67C539.481 32.12 540.201 32.765 540.741 33.605C541.281 34.445 541.551 35.54 541.551 36.89C541.551 38.39 541.101 39.695 540.201 40.805C539.331 41.915 538.086 42.785 536.466 43.415C534.846 44.015 532.911 44.315 530.661 44.315Z" fill="url(#paint0_linear_549_91)"/>
<path d="M28.1899 32.1943L23.7305 51.4609L19.271 32.1943L0 27.7305L19.271 23.2736L23.7305 4L28.1899 23.2736L47.4609 27.7305L28.1899 32.1943Z" fill="#E0C3AB"/>
<path d="M30.21 27.7237L40.9858 44.9858L23.7273 34.2095L6.46875 44.9858L17.2446 27.7237L6.46875 10.4688L23.7273 21.2379L40.9858 10.4688L30.21 27.7237Z" fill="#B2947C"/>
<path opacity="0.32" d="M16.0656 42.1379C16.0656 42.1379 24.8471 35.9443 28.1762 32.6329C31.512 29.3283 38.54 19.6053 38.54 19.6053C40.4237 17.5272 42.5404 12.2739 43.1294 10.7477C43.1911 10.5841 43.0336 10.4206 42.8692 10.4819C41.5266 10.993 37.2728 12.6623 34.3068 14.5428C30.601 16.9003 23.9703 22.2899 20.881 25.3628C17.7917 28.4357 13.7777 34.3568 11.4967 37.5796C9.59242 40.2778 7.20866 45.2926 6.48942 46.8529C6.40722 47.0232 6.58532 47.2004 6.75657 47.1254C8.37314 46.4509 13.6133 44.1547 16.0656 42.1379Z" fill="#212121"/>
<path d="M38.4624 18.2336C40.5609 15.5568 42.5493 10.2839 43.1363 8.6485C43.2097 8.45049 43.0189 8.25981 42.8135 8.32582C41.1772 8.91251 35.909 10.9073 33.2308 13.0047C30.0391 15.5055 19.4219 24.2253 19.4219 24.2253L27.2362 32.043C27.2435 32.043 35.9604 21.4238 38.4624 18.2336Z" fill="#F44336"/>
<path d="M9.00245 37.2234C6.90395 39.9002 4.91552 45.1731 4.32853 46.8085C4.25516 47.0065 4.44593 47.1972 4.65137 47.1312C6.28761 46.5445 11.5559 44.5498 14.234 42.4523C17.4258 39.9515 28.043 31.2318 28.043 31.2318L20.2213 23.4141C20.2213 23.4141 11.5045 34.0259 9.00245 37.2234Z" fill="#2F7889"/>
<path d="M22.6589 34.2006C25.6375 34.2006 28.0522 31.786 28.0522 28.8074C28.0522 25.8287 25.6375 23.4141 22.6589 23.4141C19.6803 23.4141 17.2656 25.8287 17.2656 28.8074C17.2656 31.786 19.6803 34.2006 22.6589 34.2006Z" fill="#94D1E0"/>
<defs>
<linearGradient id="paint0_linear_549_91" x1="55" y1="27.5" x2="543" y2="27.5" gradientUnits="userSpaceOnUse">
<stop stop-color="#3C81F5"/>
<stop offset="1" stop-color="#9334EA"/>
</linearGradient>
</defs>
</svg>
